<svg width="24" height="24" viewBox="0 0 24 24" fill="none" xmlns="http://www.w3.org/2000/svg">
<g id="x-circle-contained">
<g id="recycle-bin-2--remove-delete-empty-bin-trash-garbage">
<path id="Vector" d="M3 6.57141H21.2858" stroke="white" stroke-width="1.52381" stroke-linecap="round" stroke-linejoin="round"/>
<path id="Vector_2" d="M5.28564 6.57141H19V20.2857C19 20.6899 18.8394 21.0775 18.5536 21.3632C18.2679 21.6489 17.8803 21.8095 17.4762 21.8095H6.80946C6.40531 21.8095 6.01773 21.6489 5.73195 21.3632C5.44619 21.0775 5.28564 20.6899 5.28564 20.2857V6.57141Z" stroke="white" stroke-width="1.52381" stroke-linecap="round" stroke-linejoin="round"/>
<path id="Vector_3" d="M8.3335 6.57144V5.80953C8.3335 4.79918 8.73485 3.83021 9.44928 3.11578C10.1637 2.40136 11.1327 2 12.143 2C13.1534 2 14.1224 2.40136 14.8368 3.11578C15.5512 3.83021 15.9526 4.79918 15.9526 5.80953V6.57144" stroke="white" stroke-width="1.52381" stroke-linecap="round" stroke-linejoin="round"/>
<path id="Vector_4" d="M9.85693 11.1451V17.2427" stroke="white" stroke-width="1.52381" stroke-linecap="round" stroke-linejoin="round"/>
<path id="Vector_5" d="M14.4287 11.1451V17.2427" stroke="white" stroke-width="1.52381" stroke-linecap="round" stroke-linejoin="round"/>
</g>
</g>
</svg>
